<?xml version="1.0" encoding="utf-8"?>
<!-- Generator: Adobe Illustrator 18.1.1, SVG Export Plug-In . SVG Version: 6.00 Build 0)  -->
<svg version="1.1" id="图层_1" xmlns="http://www.w3.org/2000/svg" xmlns:xlink="http://www.w3.org/1999/xlink" x="0px" y="0px"
	 viewBox="0 0 128 128" enable-background="new 0 0 128 128" xml:space="preserve">
<path fill="#E21613" d="M110.1,49.5L101,37.4c-0.4-0.5-0.8-0.9-1.2-1.3V21.6c0-3.3-2.7-6.1-6.1-6.1H33.2c-3.3,0-6.1,2.7-6.1,6.1
	v14.5c-0.4,0.4-0.9,0.8-1.2,1.3l-9.1,12.1C15.7,51,15,53,15,54.9v3c0,5,4.1,9.1,9.1,9.1h0v39.4c0,3.3,2.7,6.1,6.1,6.1h66.6
	c3.3,0,6.1-2.7,6.1-6.1V67h0c5,0,9.1-4.1,9.1-9.1v-3C111.9,53,111.3,51,110.1,49.5z M93.8,21.6v12.1H33.2h0V21.6H93.8z M45.9,61
	H33.2l12.1-21.2H52L45.9,61z M55.1,39.8H62V61H49.1L55.1,39.8z M65,39.8h6.9L77.9,61H65V39.8z M75,39.8h6.6L93.8,61H81.1L75,39.8z
	 M21.1,57.9v-3c0-0.7,0.2-1.3,0.6-1.8L30.8,41c0.6-0.8,1.5-1.2,2.4-1.2h8.6L29.7,61h-5.6C22.5,61,21.1,59.6,21.1,57.9z M75.6,106.4
	H52.9V76.1h22.7V106.4z M96.8,106.4H78.6V76.1c0-1.7-1.4-3-3-3H52.9c-1.7,0-3,1.4-3,3v30.3H30.2V67h66.6V106.4z M105.9,57.9
	c0,1.7-1.4,3-3,3h-5.6L85.1,39.8h8.6h0c1,0,1.9,0.4,2.4,1.2l9.1,12.1c0.4,0.5,0.6,1.2,0.6,1.8V57.9z"/>
</svg>
