<?xml version="1.0" encoding="utf-8"?>
<!-- Generator: Adobe Illustrator 18.1.1, SVG Export Plug-In . SVG Version: 6.00 Build 0)  -->
<svg version="1.1" id="图层_5" xmlns="http://www.w3.org/2000/svg" xmlns:xlink="http://www.w3.org/1999/xlink" x="0px" y="0px"
	 viewBox="0 0 128 128" enable-background="new 0 0 128 128" xml:space="preserve">
<g>
	<g>
		<path fill="#E71F19" d="M62.9,82.9c13.9,0,25.2-13.9,25.2-31.1c0-17.2-11.3-31.1-25.2-31.1c-13.9,0-25.2,13.9-25.2,31.1
			C37.7,69,49,82.9,62.9,82.9z M62.9,26.4c10.8,0,19.6,11.4,19.6,25.4c0,14-8.8,25.4-19.6,25.4c-10.8,0-19.6-11.4-19.6-25.4
			C43.3,37.8,52.1,26.4,62.9,26.4z M99.9,88.6l-19.1-7c-1.5-0.5-3.1,0.2-3.6,1.7c-0.5,1.5,0.2,3.1,1.7,3.6l19.1,7
			c1.8,0.6,3.4,3,3.4,4.9v2c0,1.6-1.3,1.9-2.8,1.9H29.1c-1.6,0-2.8-0.3-2.8-1.9v-2c0-1.9,1.6-4.2,3.4-4.9l17.2-7
			c1.5-0.5,2.2-2.1,1.7-3.6c-0.5-1.5-2.1-2.2-3.6-1.7l-17.2,7c-4,1.4-7.2,5.9-7.2,10.2v2c0,4.7,3.8,7.5,8.4,7.5h69.5
			c4.7,0,8.4-2.9,8.4-7.5v-2C107,94.5,103.9,90,99.9,88.6z"/>
	</g>
</g>
</svg>
