<?xml version="1.0" encoding="utf-8"?>
<!-- Generator: Adobe Illustrator 18.1.1, SVG Export Plug-In . SVG Version: 6.00 Build 0)  -->
<svg version="1.1" id="图层_3" xmlns="http://www.w3.org/2000/svg" xmlns:xlink="http://www.w3.org/1999/xlink" x="0px" y="0px"
	 viewBox="0 0 128 128" enable-background="new 0 0 128 128" xml:space="preserve">
<g>
	<g>
		<path fill-rule="evenodd" clip-rule="evenodd" fill="#E71F19" d="M100,19H38.2c-4.7,0-8.4,3.8-8.4,8.4v5.6h-2.8
			c-4.7,0-8.4,3.8-8.4,8.4v56.2c0,6.2,5,11.2,11.2,11.2h67.5c6.2,0,11.2-5,11.2-11.2V27.5C108.5,22.8,104.7,19,100,19z M102.9,97.7
			c0,3.1-2.5,5.6-5.6,5.6H29.8c-3.1,0-5.6-2.5-5.6-5.6V41.5c0-1.6,1.3-2.8,2.8-2.8h2.8v56.2c0,1.6,1.3,2.8,2.8,2.8s2.8-1.3,2.8-2.8
			V27.5c0-1.6,1.3-2.8,2.8-2.8H100c1.6,0,2.8,1.3,2.8,2.8V97.7z M73.3,55.6h22.5c0.8,0,1.4-0.6,1.4-1.4c0-0.8-0.6-1.4-1.4-1.4H73.3
			c-0.8,0-1.4,0.6-1.4,1.4C71.9,55,72.6,55.6,73.3,55.6z M73.3,47.1h22.5c0.8,0,1.4-0.6,1.4-1.4c0-0.8-0.6-1.4-1.4-1.4H73.3
			c-0.8,0-1.4,0.6-1.4,1.4C71.9,46.5,72.6,47.1,73.3,47.1z M73.3,38.7h22.5c0.8,0,1.4-0.6,1.4-1.4c0-0.8-0.6-1.4-1.4-1.4H73.3
			c-0.8,0-1.4,0.6-1.4,1.4C71.9,38.1,72.6,38.7,73.3,38.7z M64.9,94.9H42.4c-0.8,0-1.4,0.6-1.4,1.4c0,0.8,0.6,1.4,1.4,1.4h22.5
			c0.8,0,1.4-0.6,1.4-1.4C66.3,95.6,65.7,94.9,64.9,94.9z M64.9,86.5H42.4c-0.8,0-1.4,0.6-1.4,1.4c0,0.8,0.6,1.4,1.4,1.4h22.5
			c0.8,0,1.4-0.6,1.4-1.4C66.3,87.1,65.7,86.5,64.9,86.5z M64.9,78.1H42.4c-0.8,0-1.4,0.6-1.4,1.4c0,0.8,0.6,1.4,1.4,1.4h22.5
			c0.8,0,1.4-0.6,1.4-1.4C66.3,78.7,65.7,78.1,64.9,78.1z M95.8,94.9H73.3c-0.8,0-1.4,0.6-1.4,1.4c0,0.8,0.6,1.4,1.4,1.4h22.5
			c0.8,0,1.4-0.6,1.4-1.4C97.2,95.6,96.6,94.9,95.8,94.9z M95.8,86.5H73.3c-0.8,0-1.4,0.6-1.4,1.4c0,0.8,0.6,1.4,1.4,1.4h22.5
			c0.8,0,1.4-0.6,1.4-1.4C97.2,87.1,96.6,86.5,95.8,86.5z M95.8,78.1H73.3c-0.8,0-1.4,0.6-1.4,1.4c0,0.8,0.6,1.4,1.4,1.4h22.5
			c0.8,0,1.4-0.6,1.4-1.4C97.2,78.7,96.6,78.1,95.8,78.1z M95.8,61.2H42.4c-0.8,0-1.4,0.6-1.4,1.4c0,0.8,0.6,1.4,1.4,1.4h53.4
			c0.8,0,1.4-0.6,1.4-1.4C97.2,61.8,96.6,61.2,95.8,61.2z M95.8,69.6H42.4c-0.8,0-1.4,0.6-1.4,1.4c0,0.8,0.6,1.4,1.4,1.4h53.4
			c0.8,0,1.4-0.6,1.4-1.4C97.2,70.3,96.6,69.6,95.8,69.6z M43.8,55.6h19.7c1.6,0,2.8-1.3,2.8-2.8V33.1c0-1.6-1.3-2.8-2.8-2.8H43.8
			c-1.6,0-2.8,1.3-2.8,2.8v19.7C41,54.3,42.3,55.6,43.8,55.6z M46.6,35.9h14.1v14.1H46.6V35.9z"/>
	</g>
</g>
</svg>
