<?xml version="1.0" encoding="utf-8"?>
<!-- Generator: Adobe Illustrator 18.1.1, SVG Export Plug-In . SVG Version: 6.00 Build 0)  -->
<svg version="1.1" id="图层_4" xmlns="http://www.w3.org/2000/svg" xmlns:xlink="http://www.w3.org/1999/xlink" x="0px" y="0px"
	 viewBox="0 0 128 128" enable-background="new 0 0 128 128" xml:space="preserve">
<path fill-rule="evenodd" clip-rule="evenodd" fill="#E71F19" d="M115.6,72.4L115.6,72.4l-73.3,2.2c0,0-0.1,0.1-0.1,0.1
	c-3.4-0.2-3.6,4.5,0.5,4.4c0.2,0,0.4-0.1,0.6-0.1h73.3c1.5,0,2.8,1,2.8,2.5c0,1.5-1.2,4.2-2.8,4.2H43.2c-0.2,0-0.4,0-0.6-0.1
	C31,85.5,32.1,70.3,38.1,70.3c0.1-0.1,0.3-0.1,0.6,0l-14-46.1h-5c-1,1.9-3,3.6-5.4,3.6c-3.4,0-6.1-2.7-6.1-6.1
	c0-3.4,2.7-6.1,6.1-6.1c2.5,0,4.6,1.9,5.6,4H27v0h0.8l2.9,8.2l84.8,3.2l0,0c0.3,0,5,0.2,5,6.1H116v0l0-1.9v-0.1l-12.6-0.4v3.6H116
	v-1.1c0,0,4.2,0,4.6,0c0,0,0,0,0,0h0v29.1c0,0,0,0,0,0C120.6,72.2,115.8,72.4,115.6,72.4z M43,70.2l8-0.2l-1.2-6.9H41L43,70.2z
	 M40.4,59.7h8.9l-0.6-3.5h-9.9L40.4,59.7z M44.7,32.7L32,32.3l2,6.1h11.7L44.7,32.7z M46.3,41.7H34.7l1.5,3.7h10.8L46.3,41.7z
	 M47.4,48.9H36.8l1.3,3.7h10L47.4,48.9z M62.4,33.3l-14.1-0.5l0.9,5.5h13.4L62.4,33.3z M62.8,41.7H49.8l0.6,3.7H63L62.8,41.7z
	 M63.2,48.9H51l0.6,3.7h11.8L63.2,48.9z M63.6,56.2H52.2l0.6,3.5h11L63.6,56.2z M64,63.1H53.4l1.1,6.8l9.8-0.2L64,63.1z M80.5,34
	l-14.5-0.5l0.3,4.9h14.5L80.5,34z M80.8,41.7H66.4l0.2,3.7H81L80.8,41.7z M81.1,48.9H66.7l0.2,3.7h14.4L81.1,48.9z M81.5,56.2H67.1
	l0.2,3.5h14.3L81.5,56.2z M81.8,63.1H67.5l0.3,6.5l14.2-0.4L81.8,63.1z M99.9,34.7L84,34.1l0.2,4.3h15.7V34.7z M99.9,41.7H84.3
	l0.2,3.7h15.4V41.7z M99.9,48.9H84.7l0.2,3.7h15.1V48.9z M99.9,56.2H85l0.2,3.5h14.7V56.2z M99.9,63.1H85.3l0.3,6l14.3-0.4V63.1z
	 M116,41.7h-12.6v3.7H116V41.7z M116,48.9h-12.6v3.7H116V48.9z M116,56.2h-12.6v3.5H116V56.2z M116,63.1h-12.6v5.6l12.6-0.3l0-0.1
	l0-1.9V63.1z M56.3,89.5c6.4,0,11.5,5.1,11.5,11.5c0,6.3-5.2,11.5-11.5,11.5c-6.4,0-11.5-5.1-11.5-11.5C44.8,94.6,50,89.5,56.3,89.5
	z M56.3,106.2c2.9,0,5.3-2.4,5.3-5.3c0-2.9-2.4-5.3-5.3-5.3c-2.9,0-5.3,2.4-5.3,5.3C51.1,103.9,53.4,106.2,56.3,106.2z M104.3,89.5
	c6.4,0,11.5,5.1,11.5,11.5c0,6.3-5.2,11.5-11.5,11.5c-6.4,0-11.5-5.1-11.5-11.5C92.8,94.6,97.9,89.5,104.3,89.5z M104.3,106.2
	c2.9,0,5.3-2.4,5.3-5.3c0-2.9-2.4-5.3-5.3-5.3c-2.9,0-5.3,2.4-5.3,5.3C99,103.9,101.4,106.2,104.3,106.2z"/>
</svg>
