<?xml version="1.0" standalone="no"?><!DOCTYPE svg PUBLIC "-//W3C//DTD SVG 1.1//EN" "http://www.w3.org/Graphics/SVG/1.1/DTD/svg11.dtd"><svg t="1511962156476" class="icon" style="" viewBox="0 0 1024 1024" version="1.1" xmlns="http://www.w3.org/2000/svg" p-id="5976" xmlns:xlink="http://www.w3.org/1999/xlink" width="200" height="200"><defs><style type="text/css"></style></defs><path d="M727.6 829.3c-54.3 0-99.6-39.9-107.9-92-1.7 0.5-3.7 0.9-5.7 0.9h-38c-1.5 0-2.9-0.2-4.3-0.5-1.4 0.4-2.8 0.5-4.3 0.5H412.3c-1.9 0-3.8-0.3-5.6-0.9-8.3 52-53.6 92-107.9 92-54.3 0-99.6-39.9-107.9-92-1.7 0.5-3.7 0.9-5.7 0.9h-71c-10 0-18.3-8.2-18.3-18.3V255.5c0-33.5 27.3-60.8 60.8-60.8h368.2c33.5 0 60.8 27.3 60.8 60.8v20.9h181.4c5.6 0 10.9 2.6 14.3 6.9l66 83 76.3 96c2.6 3.2 3.9 7.2 3.9 11.3v222.9c0 0.5 0 1.1-0.1 1.7-1.5 16.1-13.7 40.1-41.1 40.1h-45.5c-1.9 0-3.8-0.3-5.6-0.9-8.2 52-53.4 91.9-107.7 91.9z m0-182.1c-40.2 0-72.8 32.7-72.8 72.8 0 40.2 32.7 72.8 72.8 72.8 40.1 0 72.8-32.7 72.8-72.8 0-40.2-32.7-72.8-72.8-72.8z m-428.9 0c-40.2 0-72.8 32.7-72.8 72.8 0 40.2 32.7 72.8 72.8 72.8 40.1 0 72.8-32.7 72.8-72.8 0.1-40.2-32.6-72.8-72.8-72.8z m287.1 54.6H614c2 0 3.8 0.3 5.7 0.9 8.3-52 53.6-92 107.9-92 54.3 0 99.6 39.9 107.9 92 1.7-0.5 3.6-0.9 5.6-0.9h45.5c1.5 0 2 0 3.1-2.1 0.9-1.6 1.4-3.6 1.6-4.4V534.2H718c-26.9 0-48.8-21.9-48.8-48.8v-64.3c0-26.9 21.9-48.8 48.8-48.8h87.6L758.4 313l-172.6-0.1v388.9z m-453.4 0h52.7c2 0 3.8 0.3 5.7 0.9 8.3-52 53.6-92 107.9-92 54.3 0 99.6 39.9 107.9 92 1.7-0.5 3.7-0.9 5.6-0.9h137.1V255.5c0-13.4-11-24.3-24.3-24.3H156.7c-13.4 0-24.3 11-24.3 24.3v446.3z m585.6-293c-6.8 0-12.2 5.5-12.2 12.2v64.3c0 6.8 5.5 12.2 12.2 12.2h173.2V480l-56.6-71.2H718z m0 0" p-id="5977" fill="#1296db"></path><path d="M343.7 557.1c-71 0-128.7-57.7-128.7-128.7 0-71 57.7-128.7 128.7-128.7 71 0 128.7 57.7 128.7 128.7-0.1 71-57.7 128.7-128.7 128.7z m0-220.8c-50.8 0-92.1 41.3-92.1 92.1s41.3 92.1 92.1 92.1c50.9 0 92.1-41.3 92.1-92.1 0-50.7-41.3-92.1-92.1-92.1z m0 0" p-id="5978" fill="#1296db"></path><path d="M335.5 456.1c-10 0-18.3-8.2-18.3-18.3V376c0-10 8.2-18.3 18.3-18.3 10 0 18.3 8.2 18.3 18.3v61.8c-0.1 10.1-8.2 18.3-18.3 18.3z m0 0" p-id="5979" fill="#1296db"></path><path d="M397.7 456.8h-61.8c-10 0-18.3-8.2-18.3-18.3 0-10 8.2-18.3 18.3-18.3h61.8c10 0 18.3 8.2 18.3 18.3-0.1 10-8.3 18.3-18.3 18.3z m0 0" p-id="5980" fill="#1296db"></path></svg>