<?xml version="1.0" standalone="no"?><!DOCTYPE svg PUBLIC "-//W3C//DTD SVG 1.1//EN" "http://www.w3.org/Graphics/SVG/1.1/DTD/svg11.dtd"><svg t="1511962020290" class="icon" style="" viewBox="0 0 1024 1024" version="1.1" xmlns="http://www.w3.org/2000/svg" p-id="4506" xmlns:xlink="http://www.w3.org/1999/xlink" width="200" height="200"><defs><style type="text/css"></style></defs><path d="M883.528712 562.076512c0.208754-8.452509 0.233314-17.051351 0.057305-25.669636 2.299369-116.594485-32.397874-214.880999-100.360755-284.252972-32.416294-33.081443-71.840188-58.472739-117.01711-75.770707-7.009647-62.98245-75.40948-112.566752-158.492734-112.566752-83.078137 0-151.4749 49.584302-158.487617 112.566752-45.171806 17.296945-84.59263 42.689265-117.003807 75.770707C164.241668 321.528947 129.528052 419.61694 131.843794 535.861454c-0.203638 10.985192-0.1361 21.298072 0.204661 31.376615-17.615193 17.730826-31.414477 44.50768-21.330818 82.083483 7.495718 27.927049 28.1532 48.846498 53.501518 58.006112 12.881378 7.940856 28.010961 12.567223 44.196595 12.674671 32.32215 141.30426 149.643182 237.232053 302.844399 237.232053 152.920832 0 270.27154-96.16827 302.405401-237.554394 0.988514 0.214894 2.018983 0.338714 3.070942 0.338714 20.182668 0 38.747489-7.05058 53.391001-18.786878 19.138896-10.860349 34.109866-29.03529 40.246633-51.909254C921.492348 607.903234 903.583466 579.596538 883.528712 562.076512L883.528712 562.076512 883.528712 562.076512M374.036835 393.503189c2.435469 4.071735 60.822251 100.343359 170.82255 142.072763 30.350239 11.515265 61.443397 18.10024 91.51632 24.464181 60.316737 12.778024 117.300566 24.846898 156.121733 75.248821 0.404206 0.523933 0.855484 1.010003 1.319042 1.465374-0.062422 2.541893-0.062422 2.547009-0.062422 2.547009 0 18.789948-1.417279 36.947494-4.1536 54.397934-49.907667 79.739089-132.715651 131.99422-235.299027 143.250588-7.644097-10.093892-23.217794-17.049305-41.307801-17.049305-25.65224 0-46.471404 13.888312-46.471404 30.974455 0 17.127076 20.819165 30.982642 46.471404 30.982642 22.99676 0 41.941228-11.18883 45.627177-25.825179 33.083489-3.801583 64.630996-11.704576 94.204545-23.64963 42.244126-17.058514 79.473029-41.911552 110.635773-73.871451 4.990664-5.106298 9.779737-10.397814 14.411221-15.826454-37.142945 113.1265-136.435369 185.847755-266.064728 185.859012l0 0c-0.233314-0.01228-0.86981-0.01228-1.101077-0.01228-166.328189 0-282.495956-118.93581-282.495956-289.500487l-0.312108-16.23066c-0.204661-6.955412 0.871857-26.492374 2.031263-45.228087 90.674139-32.078603 128.323621-124.244722 129.971144-128.387066L374.036835 393.503189 374.036835 393.503189M433.842942 651.956565c0 29.697369-24.078395 53.776787-53.775764 53.776787-29.697369 0-53.773717-24.079418-53.773717-53.776787 0-29.696346 24.077372-53.772694 53.773717-53.772694C409.765571 598.183871 433.842942 622.262266 433.842942 651.956565L433.842942 651.956565M684.250062 651.956565c0 29.225625-23.688515 52.919257-52.915164 52.919257-29.221532 0-52.910047-23.694655-52.910047-52.919257 0-29.222555 23.690562-52.91414 52.910047-52.91414C660.561547 599.043449 684.250062 622.735034 684.250062 651.956565L684.250062 651.956565M684.250062 651.956565 684.250062 651.956565z" p-id="4507" fill="#d81e06"></path></svg>