<?xml version="1.0" standalone="no"?><!DOCTYPE svg PUBLIC "-//W3C//DTD SVG 1.1//EN" "http://www.w3.org/Graphics/SVG/1.1/DTD/svg11.dtd"><svg t="1511962664761" class="icon" style="" viewBox="0 0 1024 1024" version="1.1" xmlns="http://www.w3.org/2000/svg" p-id="11545" xmlns:xlink="http://www.w3.org/1999/xlink" width="200" height="200"><defs><style type="text/css"></style></defs><path d="M506.480838 894.286289l-83.59683 0L193.004352 1019.685579 193.004352 789.809968c-114.594533-80.443168-188.097418-195.893102-188.097418-334.417655 0-242.374995 224.571311-438.876787 501.573905-438.876787 277.00765 0 501.577949 196.501793 501.577949 438.876787C1008.077998 697.809774 783.511743 894.286289 506.480838 894.286289L506.480838 894.286289 506.480838 894.286289zM506.480838 79.193432c-242.374995 0-438.914199 168.431264-438.914199 376.19787 0 127.489261 74.966978 245.444735 188.139885 313.476486l0 139.338499 167.154227-76.617115 83.600875 0c242.374995 0 438.919254-168.431264 438.919254-376.19787C945.401103 247.605484 748.860888 79.193432 506.480838 79.193432L506.480838 79.193432 506.480838 79.193432zM757.303685 518.088419c-34.651866 0-62.721384-28.064462-62.721384-62.716328 0-34.651866 28.069518-62.721384 62.721384-62.721384 34.609399 0 62.678917 28.069518 62.678917 62.721384C819.982602 490.023957 791.912073 518.088419 757.303685 518.088419L757.303685 518.088419 757.303685 518.088419zM506.480838 518.088419c-34.651866 0-62.716328-28.064462-62.716328-62.716328 0-34.651866 28.064462-62.721384 62.716328-62.721384 34.651866 0 62.721384 28.069518 62.721384 62.721384C569.202222 490.023957 541.132704 518.088419 506.480838 518.088419L506.480838 518.088419 506.480838 518.088419zM255.687313 518.088419c-34.613444 0-62.681951-28.064462-62.681951-62.697117 0-34.633666 28.068507-62.721384 62.681951-62.721384 34.651866 0 62.716328 28.069518 62.716328 62.721384C318.403642 490.042157 290.314912 518.088419 255.687313 518.088419L255.687313 518.088419 255.687313 518.088419zM255.687313 518.088419" p-id="11546" fill="#c43fa9"></path></svg>