<?xml version="1.0" standalone="no"?><!DOCTYPE svg PUBLIC "-//W3C//DTD SVG 1.1//EN" "http://www.w3.org/Graphics/SVG/1.1/DTD/svg11.dtd"><svg t="1511961809760" class="icon" style="" viewBox="0 0 1024 1024" version="1.1" xmlns="http://www.w3.org/2000/svg" p-id="1838" xmlns:xlink="http://www.w3.org/1999/xlink" width="200" height="200"><defs><style type="text/css"></style></defs><path d="M759.3 946.8c-4.6 0-9.6-0.4-15-1.5-16.3-3.1-34.6-11-55.9-24.1-75.3-46.3-145.8-80.5-174.3-93.7l-174.6 94.4c-2.8 1.6-15.1 8.3-30.7 13.1-34 10.6-56.1 3.6-68.7-4.1-11.8-7.2-20.9-18.5-26.2-32.6-4.9-13-6.9-28.4-5.9-46.9 4.1-78.5 20.3-179.9 26.8-218.3l-153.1-154c-1.1-1.1-2.1-2.3-3.1-3.6-0.8-1.1-7.7-10.9-13.4-24.4-8.9-21.2-10.6-40.7-5-58 4.7-14.4 16.7-33.6 47.4-43.7 50.8-16.6 192.3-32.5 241-37.7l99.6-197.4c0.8-1.7 1.8-3.2 3-4.7 2.6-3.3 26-32.7 61.2-32.7 15.3 0 37.8 5.7 58.5 32.7 31.5 41.2 93.7 162.5 114.3 203.5l221.3 41.1c0.4 0.1 0.8 0.2 1.3 0.3 4.2 1 41.6 10.5 53.1 45 8.4 25.3-0.3 53.6-25.9 83.8-45.3 53.5-121.4 128.6-150 156.4L817.6 860c1.2 7.5 7.7 54.9-25.2 77.2-7 4.7-17.8 9.6-33.1 9.6zM513 764c4.1 0 8.2 0.8 12.1 2.5 3.8 1.7 94.1 41.5 194.8 103.6 22.2 13.7 33.7 16.2 38.2 16.6 1.1-4.3 1.2-12.2 0.3-16.9 0-0.3-0.1-0.5-0.1-0.8l-34.9-235.7c-1.4-9.6 1.9-19.3 8.9-26 1-1 103.5-99.7 156.9-162.8 14.5-17.1 14.8-25.2 14.8-26.1-1.2-1.8-6.7-4.6-9.2-5.4l-235.1-43.6c-9.3-1.7-17.2-7.7-21.4-16.1-22.5-45.2-86.9-170.5-115-207.1-5.5-7.2-9.5-9.1-10.8-9.1-3 0-8.5 3.9-12.2 7.7L394.8 353.5c-4.6 9.2-13.6 15.3-23.8 16.3-52.8 5.2-199.6 21.9-244.6 36.7-5.6 1.9-8.7 4-9.1 5.2-1.8 5.4 3.9 19.2 8.9 27l162.1 163.1c6.9 6.9 10 16.8 8.3 26.4-0.2 1.3-23.7 133.3-28.6 226.3-0.9 17.7 2.5 24.4 3.5 25.2 0.8 0.5 6.4 1.8 18.3-1.7 10.7-3.1 19.5-8 20.2-8.4 0.3-0.2 0.4-0.2 0.7-0.4l188-101.6c4.5-2.4 9.4-3.6 14.3-3.6zM368 340z" p-id="1839" fill="#d4237a"></path><path d="M391.3 573.6c-16.6 0-30-13.4-30-30 0-13.1 1.6-26.1 4.8-38.7 7-27.7 21.6-53 42.1-73.2 20.5-20.2 46.1-34.3 73.9-40.9 11.8-2.8 24-4.2 36.2-4.2 16.6 0 30 13.4 30 30s-13.4 30-30 30c-7.6 0-15.1 0.9-22.4 2.6-34.7 8.2-62.8 35.9-71.6 70.5-2 7.8-3 15.8-3 24 0 16.5-13.4 29.9-30 29.9z" p-id="1840" fill="#d4237a"></path></svg>