<?xml version="1.0" encoding="utf-8"?>
<!-- Generator: Adobe Illustrator 18.1.1, SVG Export Plug-In . SVG Version: 6.00 Build 0)  -->
<svg version="1.1" id="图层_1" xmlns="http://www.w3.org/2000/svg" xmlns:xlink="http://www.w3.org/1999/xlink" x="0px" y="0px"
	 viewBox="0 0 40 400" enable-background="new 0 0 40 400" xml:space="preserve">
<path fill-rule="evenodd" clip-rule="evenodd" fill="#CF151B" d="M31.6,34.8h-23c-1,0-1.8-0.8-1.8-1.8V15.1v-1.8l23-7.2
	C30.2,6,30.6,5.9,30.9,6c0.5,0.2,0.7,0.5,0.7,1v6.3c1,0,1.8,0.8,1.8,1.8V33C33.3,34,32.6,34.8,31.6,34.8z M29.8,7.9l-17.2,5.4h17.2
	V7.9z M31.6,24.9c0-0.5,0-0.2,0-0.9H28c0,0.4,0,0.4,0,0.9c0,0.5,0,0.3,0,0.9h3.5C31.6,25.2,31.6,25.4,31.6,24.9z M8.6,15.1h22.1
	c0.5,0,0.9,0.4,0.9,0.9v6.3h-4.4c-0.5,0-0.9,0.4-0.9,0.9v3.6c0,0.5,0.4,0.9,0.9,0.9h4.4v4.5c0,0.5-0.4,0.9-0.9,0.9H9.5
	c-0.5,0-0.9-0.4-0.9-0.9C8.6,32.1,8.6,15.7,8.6,15.1z"/>
<path fill-rule="evenodd" clip-rule="evenodd" fill="#E9AC15" d="M27.2,75H13c-2,0-3.5-1.6-3.5-3.6V53.5c0-2,1.6-3.6,3.5-3.6h1.8
	c0-2,2.4-3.6,5.3-3.6c2.9,0,5.3,1.6,5.3,3.6h1.8c2,0,3.5,1.6,3.5,3.6v17.9C30.7,73.4,29.1,75,27.2,75z M20.1,48.1
	c-2,0-3.5,0.6-3.5,1.8h7.1C23.6,48.7,22,48.1,20.1,48.1z M28.9,53.5c0-1-0.8-1.8-1.8-1.8h-1.8v5.4h-1.8v-5.4h-7.1v5.4h-1.8v-5.4H13
	c-1,0-1.8,0.8-1.8,1.8v14.4h17.7V53.5z M28.9,69.6H11.3v1.8c0,1,0.8,1.8,1.8,1.8h14.1c1,0,1.8-0.8,1.8-1.8V69.6z"/>
<path fill-rule="evenodd" clip-rule="evenodd" fill="#22ACE2" d="M34.2,109.9c0,0-2.8,0.6-5.6,1.2c-1.9,2.1-3.8,4.3-3.8,4.3l-4.1-7
	c-0.2,0-0.5,0-0.7,0c-0.2,0-0.5,0-0.7,0l-4.1,7c0,0-1.9-2.1-3.8-4.3c-2.8-0.6-5.6-1.2-5.6-1.2l4.4-7.6c-0.7-1.4-1.1-3.1-1.1-4.8
	c0-6,4.9-10.9,10.9-10.9c6,0,10.9,4.9,10.9,10.9c0,1.7-0.4,3.3-1.1,4.8L34.2,109.9z M25,112c0,0,1.4-1.3,2.6-2.6
	c1.8-0.5,3.6-1.1,3.6-1.1l-2.6-4.4c-1.5,2-3.6,3.4-6,4L25,112z M8.9,108.4c0,0,1.8,0.5,3.6,1.1c1.3,1.3,2.6,2.6,2.6,2.6l2.3-4.1
	c-2.5-0.6-4.6-2-6-4L8.9,108.4z M20.1,88.4c-4.9,0-8.8,4-8.8,9c0,5,4,9,8.8,9c4.9,0,8.8-4,8.8-9C28.9,92.4,25,88.4,20.1,88.4z
	 M20.1,103.6c-3.4,0-6.2-2.8-6.2-6.3c0-3.5,2.8-6.3,6.2-6.3c3.4,0,6.2,2.8,6.2,6.3C26.3,100.8,23.5,103.6,20.1,103.6z M20.1,92.9
	c-2.4,0-4.4,2-4.4,4.5c0,2.5,2,4.5,4.4,4.5c2.4,0,4.4-2,4.4-4.5C24.5,94.9,22.5,92.9,20.1,92.9z"/>
<path fill-rule="evenodd" clip-rule="evenodd" fill="#D5417E" d="M23.7,155.7l-3.6-2.7l-3.6,2.7l-3.6-2.7l-3.7,2.7H7.4v-25.3
	c0-2,1.6-3.6,3.6-3.6h18.1c2,0,3.6,1.6,3.6,3.6v25.3h-1.7l-3.7-2.7L23.7,155.7z M31,130.4c0-1-0.8-1.8-1.8-1.8H11
	c-1,0-1.8,0.8-1.8,1.8v23.5l3.6-2.8l3.6,2.9l3.6-2.9l3.6,2.9l3.6-2.9l3.6,2.7V130.4z M26.4,144.8H13.7c-0.5,0-0.9-0.4-0.9-0.9
	c0-0.5,0.4-0.9,0.9-0.9h12.7c0.5,0,0.9,0.4,0.9,0.9C27.3,144.4,26.9,144.8,26.4,144.8z M26.4,139.4H13.7c-0.5,0-0.9-0.4-0.9-0.9
	c0-0.5,0.4-0.9,0.9-0.9h12.7c0.5,0,0.9,0.4,0.9,0.9C27.3,139,26.9,139.4,26.4,139.4z M26.4,134H13.7c-0.5,0-0.9-0.4-0.9-0.9
	c0-0.5,0.4-0.9,0.9-0.9h12.7c0.5,0,0.9,0.4,0.9,0.9C27.3,133.6,26.9,134,26.4,134z"/>
<path fill-rule="evenodd" clip-rule="evenodd" fill="#B14494" d="M20.1,191.6c-0.9,0-1.7-0.1-2.5-0.2l-5.9,3.6v-6
	c-3.1-2.2-5.1-5.5-5.1-9.2c0-6.5,6-11.8,13.5-11.8s13.5,5.3,13.5,11.8C33.6,186.3,27.5,191.6,20.1,191.6z M20.1,169.7
	c-6.5,0-11.8,4.5-11.8,10.1c0,3.4,2,6.4,5,8.3l-0.1,3.9l4-2.4c0.9,0.2,1.9,0.3,2.8,0.3c6.5,0,11.8-4.5,11.8-10.1
	C31.9,174.2,26.6,169.7,20.1,169.7z M26.8,181.5c-0.9,0-1.7-0.8-1.7-1.7c0-0.9,0.8-1.7,1.7-1.7c0.9,0,1.7,0.8,1.7,1.7
	C28.5,180.7,27.8,181.5,26.8,181.5z M20.1,181.5c-0.9,0-1.7-0.8-1.7-1.7c0-0.9,0.8-1.7,1.7-1.7c0.9,0,1.7,0.8,1.7,1.7
	C21.8,180.7,21,181.5,20.1,181.5z M13.4,181.5c-0.9,0-1.7-0.8-1.7-1.7c0-0.9,0.8-1.7,1.7-1.7c0.9,0,1.7,0.8,1.7,1.7
	C15,180.7,14.3,181.5,13.4,181.5z"/>
<path fill-rule="evenodd" clip-rule="evenodd" fill="#B14494" d="M34.2,216.4c0,0,0,2.6,0,3.6c0,1.2-0.3,2-0.9,2.7v9.9
	c0,2-1.7,3.6-3.7,3.6H10.5c-2,0-3.6-1.6-3.6-3.6l0-9.9C6.3,222,6,220.9,6,220c0-0.5,0-3.6,0-3.6l5.1-9h18L34.2,216.4 M8.6,232.5
	c0,1,0.9,1.8,1.9,1.8h19.1c1,0,1.9-0.8,1.9-1.8v-1.8l-23,0V232.5z M8.6,228.9h23v-5.4c-0.2,0-1.5,0-1.8,0c-1.7,0-2.3-1-3.1-2.3
	c-0.7,1.3-2,2.3-3.3,2.3c-1.3,0-2.8-0.8-3.3-2c-0.5,1.2-2,2-3.3,2c-1.3,0-2.6-0.9-3.3-2.2c-0.6,1.3-2.1,2.2-3.1,2.2
	c-0.5,0-1.2,0-1.7,0L8.6,228.9z M32.5,220c0,1.2-1.4,1.8-2.7,1.8c-1.4,0-2.7-0.9-2.7-1.8h-0.8c0,0.9-1.6,1.8-2.9,1.8
	c-1.3,0-2.8-0.9-2.8-1.8h-0.9c0,0.9-1.5,1.8-2.9,1.8c-1.4,0-2.9-0.6-2.9-1.8H13c0,0.9-1.4,1.8-2.7,1.8c-1.3,0-2.6-0.6-2.6-1.8v-1.8
	h24.7V220z M32.5,216.4L32.5,216.4l-4.2-7.2H11.9l-4.1,7.2L32.5,216.4L32.5,216.4z"/>
<path fill-rule="evenodd" clip-rule="evenodd" fill="#669532" d="M32.5,258.5v14.4c0,2-1.6,3.6-3.5,3.6H11.3c-2,0-3.5-1.6-3.5-3.6
	v-14.4c-1,0-1.8-0.8-1.8-1.8v-1.8c0-1,0.8-1.8,1.8-1.8h6.7c-0.3-0.5-0.5-1.1-0.5-1.8c0-2,1.6-3.6,3.5-3.6c1.1,0,2,0.5,2.7,1.2
	c0.6-0.8,1.6-1.2,2.7-1.2c2,0,3.5,1.6,3.5,3.6c0,0.7-0.2,1.3-0.5,1.8h6.7c1,0,1.8,0.8,1.8,1.8v1.8C34.2,257.7,33.4,258.5,32.5,258.5
	z M28.9,274.6c1,0,1.8-0.8,1.8-1.8v-5.4H21v7.2H28.9z M21,265.6h9.7v-7.2H21V265.6z M9.5,272.8c0,1,0.8,1.8,1.8,1.8h8v-7.2H9.5
	V272.8z M9.5,265.6h9.7v-7.2H9.5V265.6z M17.4,249.5c-1,0-1.8,0.8-1.8,1.8c0,1,0.8,1.8,1.8,1.8c1,0,1.8-0.8,1.8-1.8
	C19.2,250.3,18.4,249.5,17.4,249.5z M22.7,249.5c-1,0-1.8,0.8-1.8,1.8c0,1,0.8,1.8,1.8,1.8c1,0,1.8-0.8,1.8-1.8
	C24.5,250.3,23.7,249.5,22.7,249.5z M31.6,254.9h-23c-0.5,0-0.9,0.4-0.9,0.9c0,0.5,0.4,0.9,0.9,0.9h23c0.5,0,0.9-0.4,0.9-0.9
	C32.5,255.3,32.1,254.9,31.6,254.9z"/>
<path fill-rule="evenodd" clip-rule="evenodd" fill="#D5417E" d="M35.2,310.7H20.4c0.4-0.7,0.8-1.6,1-2.4h13.8
	c0.7,0,1.2,0.5,1.2,1.2C36.4,310.2,35.8,310.7,35.2,310.7z M35.2,307.1H21.6c0-0.4,0.1-0.8,0.1-1.2c0-0.4,0-0.8-0.1-1.2h13.5
	c0.7,0,1.2,0.5,1.2,1.2C36.4,306.6,35.8,307.1,35.2,307.1z M35.2,303.5H21.4c-0.2-0.9-0.6-1.7-1-2.4h14.8c0.7,0,1.2,0.5,1.2,1.2
	C36.4,303,35.8,303.5,35.2,303.5z M35.2,299.9H19.6c-0.8-1-1.8-1.8-2.9-2.4h18.4c0.7,0,1.2,0.5,1.2,1.2
	C36.4,299.4,35.8,299.9,35.2,299.9z M35.2,296.3H15.9c-0.7,0-1.2-0.5-1.2-1.2c0-0.7,0.5-1.2,1.2-1.2h19.3c0.7,0,1.2,0.5,1.2,1.2
	C36.4,295.8,35.8,296.3,35.2,296.3z M35.2,292.7H15.9c-0.7,0-1.2-0.5-1.2-1.2c0-0.7,0.5-1.2,1.2-1.2h19.3c0.7,0,1.2,0.5,1.2,1.2
	C36.4,292.2,35.8,292.7,35.2,292.7z M20.7,305.9c0,4.6-3.8,8.4-8.4,8.4c-4.7,0-8.4-3.8-8.4-8.4c0-4.6,3.8-8.4,8.4-8.4
	C16.9,297.5,20.7,301.3,20.7,305.9z M15.2,306.8c-0.1-0.3-0.3-0.5-0.5-0.8c-0.2-0.2-0.4-0.4-0.7-0.5c-0.3-0.2-0.5-0.3-0.8-0.4
	c-0.3-0.1-0.5-0.2-0.8-0.3c-0.3-0.1-0.5-0.2-0.7-0.3c-0.2-0.1-0.4-0.3-0.5-0.4c-0.1-0.2-0.2-0.3-0.2-0.6c0-0.1,0-0.3,0.1-0.4
	c0.1-0.1,0.1-0.2,0.2-0.3c0.1-0.1,0.2-0.2,0.4-0.2c0.2-0.1,0.3-0.1,0.6-0.1c0.3,0,0.5,0,0.8,0.1c0.2,0.1,0.4,0.1,0.6,0.2
	c0.2,0.1,0.3,0.2,0.4,0.2c0.1,0.1,0.2,0.1,0.3,0.1s0.1,0,0.1,0c0,0,0.1-0.1,0.1-0.1c0-0.1,0-0.1,0-0.2c0-0.1,0-0.2,0-0.4
	c0-0.1,0-0.2,0-0.3c0-0.1,0-0.2,0-0.2c0-0.1,0-0.1,0-0.1c0,0-0.1-0.1-0.1-0.1c-0.1,0-0.2-0.1-0.3-0.2c-0.2-0.1-0.3-0.1-0.5-0.2
	c-0.2-0.1-0.4-0.1-0.6-0.1c0,0-0.1,0-0.1,0v-1.2h-1.2v1.2l0,0c-0.2,0-0.4,0.1-0.6,0.1c-0.4,0.1-0.7,0.3-1,0.5
	c-0.3,0.2-0.5,0.5-0.7,0.9c-0.2,0.4-0.3,0.8-0.3,1.2c0,0.4,0.1,0.8,0.2,1c0.1,0.3,0.3,0.5,0.5,0.8c0.2,0.2,0.4,0.4,0.7,0.5
	c0.2,0.2,0.5,0.3,0.8,0.4c0.3,0.1,0.5,0.2,0.8,0.3c0.2,0.1,0.5,0.2,0.7,0.3c0.2,0.1,0.4,0.3,0.5,0.4c0.1,0.2,0.2,0.3,0.2,0.6
	c0,0.2,0,0.4-0.1,0.5c-0.1,0.2-0.2,0.3-0.3,0.4c-0.1,0.1-0.3,0.2-0.5,0.2c-0.2,0.1-0.4,0.1-0.6,0.1c-0.4,0-0.7,0-1-0.1
	c-0.3-0.1-0.5-0.2-0.7-0.3c-0.2-0.1-0.4-0.2-0.5-0.3c-0.1-0.1-0.2-0.1-0.3-0.1c-0.1,0-0.1,0-0.1,0c0,0-0.1,0.1-0.1,0.1
	c0,0.1,0,0.2,0,0.3c0,0.1,0,0.2,0,0.4c0,0.2,0,0.4,0,0.5c0,0.1,0.1,0.2,0.1,0.3c0.1,0.1,0.2,0.1,0.3,0.2c0.1,0.1,0.3,0.2,0.6,0.2
	c0.2,0.1,0.5,0.1,0.8,0.2c0.3,0.1,0.6,0.1,0.9,0.1c0,0,0,0,0,0v1.2H13v-1.3c0.1,0,0.1,0,0.2,0c0.4-0.1,0.8-0.3,1.1-0.6
	c0.3-0.3,0.6-0.6,0.8-1c0.2-0.4,0.3-0.8,0.3-1.3C15.4,307.5,15.4,307.1,15.2,306.8z M19.6,311.9h15.6c0.7,0,1.2,0.5,1.2,1.2
	c0,0.7-0.5,1.2-1.2,1.2H16.7C17.8,313.7,18.8,312.9,19.6,311.9z"/>
<path fill-rule="evenodd" clip-rule="evenodd" fill="#2B5CAA" d="M21,349.6c-0.5-0.5-1.2-0.9-1.9-1.2l-1.5-5.7l17.5-4.9l1.9,7.3
	L21,349.6z M15.4,334.2L27,331l1.9,7.3l-11.7,3.3L15.4,334.2z M15.9,348.4c-0.3,0.1-0.6,0.2-0.9,0.4l-5.1-20H7.9
	c-0.2,0.4-0.6,0.7-1.1,0.7H4.4c-0.7,0-1.2-0.6-1.2-1.3c0-0.7,0.5-1.3,1.2-1.3h2.4c0.4,0,0.7,0.2,1,0.5h3.7v0.1l0.1,0l5.3,20.6
	C16.6,348.2,16.2,348.3,15.9,348.4z M16.2,349.6c2.3-0.6,4.6,0.8,5.2,3.1c0.6,2.3-0.7,4.8-3,5.4c-2.3,0.6-4.6-0.8-5.2-3.1
	C12.6,352.6,14,350.2,16.2,349.6z M15.6,354.4c0.3,1,1.3,1.6,2.2,1.3c1-0.3,1.5-1.3,1.3-2.3c-0.3-1-1.3-1.6-2.2-1.3
	C15.9,352.3,15.3,353.4,15.6,354.4z M36.8,349.4l-14.1,3.9c0-0.3-0.1-0.7-0.2-1c-0.1-0.3-0.2-0.7-0.3-1l14-3.9L36.8,349.4z"/>
<path fill-rule="evenodd" clip-rule="evenodd" fill="#4756A4" d="M29.4,395.5H10.6c-1.7,0-3.1-1.4-3.1-3.1v-18.8
	c0-1.7,1.4-3.3,3.1-3.3h12.6v1.6H10.7c-0.9,0-1.6,0.8-1.6,1.7v18.8c0,0.9,0.7,1.6,1.6,1.6h18.7c0.9,0,1.7-0.7,1.7-1.6v-12.6h1.6
	v12.6C32.7,394,31.1,395.5,29.4,395.5z M19.3,388.7c-0.2,0.2-0.5,0.3-0.8,0.4l-6.8,3.4c-0.8,0.4-1.4-0.3-1.1-1.1l3.4-6.9
	c0.1-0.3,0.2-0.6,0.4-0.8l12.1-12.2c0.6-0.6,1.6-0.6,2.2,0l2.8,2.8c0.6,0.6,0.6,1.6,0,2.2L19.3,388.7z M12,390.4
	c-0.2,0.4,0.2,0.7,0.6,0.6l4.2-2.6l-2.2-2.2L12,390.4z M15.4,384.8l8.8-8.8l2.8,2.7l-8.8,8.9C17.1,386.5,15.7,385.1,15.4,384.8z
	 M29.7,374.8l-1.7-1.7c-0.3-0.3-0.8-0.3-1.1,0l-1.6,1.6l2.7,2.8l1.7-1.7C30.1,375.6,30.1,375.1,29.7,374.8z"/>
</svg>
