<?xml version="1.0" standalone="no"?><!DOCTYPE svg PUBLIC "-//W3C//DTD SVG 1.1//EN" "http://www.w3.org/Graphics/SVG/1.1/DTD/svg11.dtd"><svg t="1511962769408" class="icon" style="" viewBox="0 0 1024 1024" version="1.1" xmlns="http://www.w3.org/2000/svg" p-id="12260" xmlns:xlink="http://www.w3.org/1999/xlink" width="200" height="200"><defs><style type="text/css"></style></defs><path d="M526.475 790.997c191.918 0 325.349-113.335 380.832-310.699 24.168-85.958 23.109-187.858 23.109-303.275 0-41.557-254.124 30.762-254.124 30.762S598.506 35.046 520.514 35.046c-77.995 0-168.446 175.247-168.446 175.247s-242.292-89.53-242.292-39.505c0 123.671-1.927 220.128 9.602 315.809C173.638 689.022 319.646 790.997 526.475 790.997zM177.285 243.197c25.998-33.066 216.083 51.005 216.083 51.005s69.93-154.08 127.013-154.08 121.556 155.229 121.556 155.229 197.258-88.442 221.109-51.311c0 87.556 1.415 167.389-21.215 235.698-49.332 148.89-164.617 243.015-317.086 243.015-162.774 0-282.826-86.069-331.334-239.877C172.154 415.476 177.285 335.069 177.285 243.197zM591.673 961.423c31.04 11.092 48.542 6.531 67.927 2.809 54.233-91.694 137.803-111.15 255.855-115.536 5.782-20.037 18.158-34.467 11.534-54.411C853.472 792.045 666.307 790.06 591.673 961.423zM484.285 995.285l68.665 1.669 0.745-204.699-68.209-1.456L484.285 995.285zM109.625 794.47c-16.304 18.629-3.344 50.764 0 64.84 125.398-29.064 234.3 45.827 266.831 105.836 16.309-0.186 57.488-5.306 72.209-10.521C446.426 900.665 309.015 774.442 109.625 794.47z" p-id="12261" fill="#f37e00"></path></svg>