<?xml version="1.0" standalone="no"?><!DOCTYPE svg PUBLIC "-//W3C//DTD SVG 1.1//EN" "http://www.w3.org/Graphics/SVG/1.1/DTD/svg11.dtd"><svg t="1511962905101" class="icon" style="" viewBox="0 0 1024 1024" version="1.1" xmlns="http://www.w3.org/2000/svg" p-id="13539" xmlns:xlink="http://www.w3.org/1999/xlink" width="200" height="200"><defs><style type="text/css"></style></defs><path d="M935.305447 214.731596c-15.497972-17.545608-36.84107-27.193339-60.055794-27.193339l-651.027403 0c-0.23843 0-0.474814 0.01228-0.712221 0.01842l-2.38942-13.793144c-5.418406-44.381813-44.408419-79.08622-88.807628-79.08622l-39.437198 0c-16.238846 0-29.447682 13.210883-29.447682 29.448706 0 16.237823 13.20986 29.448706 29.447682 29.448706l39.437198 0c14.639418 0 28.621874 13.151531 30.549783 28.707832l29.866215 172.659385 52.503794 369.693924c5.372358 44.322461 43.921325 79.026868 87.781252 79.026868l518.17156 0c16.240893 0 29.449729-13.210883 29.449729-29.448706-0.001023-16.21224-13.211906-29.418007-29.450752-29.418007L333.010955 744.79602c-14.115486 0-27.564799-12.735046-29.372981-27.820626l-4.340865-30.567179 521.918907-37.534871c43.938722 0 82.409918-33.995255 87.694271-77.366042l48.804543-279.085276C961.251376 263.151375 953.087439 234.799654 935.305447 214.731596zM899.47131 283.782252l-48.774867 279.086299c-1.812275 14.871709-16.004509 27.133987-31.616068 27.224038l-528.077164 37.912471-40.075741-282.204313-17.21508-99.363032 641.539308 0c6.324032 0 11.69639 2.464121 15.96767 7.302313C897.573077 260.923638 900.808772 272.709055 899.47131 283.782252z" p-id="13540" fill="#0093b8"></path><path d="M356.377128 837.652871c-33.291221 0-60.396555 27.103288-60.396555 60.410881-0.002047 33.283034 27.102265 60.385299 60.396555 60.385299 33.29429 0 60.396555-27.102265 60.396555-60.385299C416.773683 864.757183 389.669372 837.652871 356.377128 837.652871z" p-id="13541" fill="#0093b8"></path><path d="M789.792329 837.652871c-33.30964 0-60.409858 27.103288-60.409858 60.410881-0.00307 33.283034 27.100218 60.385299 60.409858 60.385299 33.278941 0 60.384275-27.102265 60.384275-60.385299C850.175581 864.757183 823.072293 837.652871 789.792329 837.652871z" p-id="13542" fill="#0093b8"></path></svg>