<?xml version="1.0" standalone="no"?><!DOCTYPE svg PUBLIC "-//W3C//DTD SVG 1.1//EN" "http://www.w3.org/Graphics/SVG/1.1/DTD/svg11.dtd"><svg t="1511962004131" class="icon" style="" viewBox="0 0 1024 1024" version="1.1" xmlns="http://www.w3.org/2000/svg" p-id="3805" xmlns:xlink="http://www.w3.org/1999/xlink" width="200" height="200"><defs><style type="text/css"></style></defs><path d="M1024.05229 512A512.13 512.13 0 0 0 40.30229 312.66a512.19 512.19 0 0 0 713 651l197.82 59a32 32 0 0 0 39.5-40.66l-58.5-177.24A509.8 509.8 0 0 0 1024.05229 512zM870.99229 780.09a32 32 0 0 0-4.77 29.2l44.41 134.55-151.93-45.32a32 32 0 0 0-25 2.87A448 448 0 0 1 512.05229 960C265.05229 960 64.05229 759 64.05229 512S265.05229 64 512.05229 64s448 201 448 448c0 97.52-30.8 190.23-89.06 268.09z" fill="#d4237a" p-id="3806"></path><path d="M780.15229 446c0-86.77-70.59-157.36-157.36-157.36A157.09 157.09 0 0 0 512.05229 334.18a157.05 157.05 0 0 0-110.77-45.54c-86.77 0-157.36 70.59-157.36 157.36v0.35c-0.31 41.86 13.47 86.37 41 132.3 20.89 34.92 49.85 71 86.08 107.14 60.73 60.64 120.87 100.83 123.4 102.51L512.05229 800.08l17.72-11.83c2.52-1.68 62.36-41.86 122.94-102.49 36.12-36.15 65-72.18 86-107.08 27.51-45.87 41.45-90.31 41.45-132.1h-0.06c0.04-0.2 0.05-0.39 0.05-0.58zM608.23229 639.78c-37.18 37.33-74.86 66.83-96.18 82.6-21.44-15.76-59.29-45.28-96.59-82.63-49.33-49.4-108-123-107.51-192.94v-0.82a93.38 93.38 0 0 1 175.92-43.64 32 32 0 0 0 57.51-2A93.36 93.36 0 0 1 716.15229 446v1.35c-0.39 69.87-58.85 143.17-107.92 192.43z" fill="#d4237a" p-id="3807"></path></svg>