<?xml version="1.0" standalone="no"?><!DOCTYPE svg PUBLIC "-//W3C//DTD SVG 1.1//EN" "http://www.w3.org/Graphics/SVG/1.1/DTD/svg11.dtd"><svg t="1511962332487" class="icon" style="" viewBox="0 0 1024 1024" version="1.1" xmlns="http://www.w3.org/2000/svg" p-id="10823" xmlns:xlink="http://www.w3.org/1999/xlink" width="200" height="200"><defs><style type="text/css"></style></defs><path d="M512.016373 959.367981 512.016373 959.367981 512.016373 959.367981 512.016373 959.367981zM512.016373 959.367981" p-id="10824" fill="#d4237a"></path><path d="M458.502575 630.967532l25.542746 25.586748c3.015683 3.015683 7.03216 4.679579 11.310603 4.679579 4.28049 0 8.295943-1.663896 11.307533-4.684696l446.555475-446.546266c6.232958-6.241145 6.232958-16.391319 0-22.623253l-25.585725-25.541723c-3.015683-3.015683-7.027044-4.676509-11.287067-4.676509-4.260024 0-8.271384 1.659803-11.292184 4.676509l-446.551382 446.560592C452.28599 614.614076 452.28599 624.740714 458.502575 630.967532L458.502575 630.967532zM458.502575 630.967532" p-id="10825" fill="#d4237a"></path><path d="M507.297908 656.562467l25.581632-25.546839c3.0208-3.015683 4.679579-7.03216 4.679579-11.310603 0-4.28049-1.658779-8.29185-4.679579-11.302417L342.026794 425.724031c-6.241145-6.236028-16.392342-6.231935-22.623253 0l-25.542746 25.581632c-3.015683 3.0208-4.674463 7.027044-4.674463 11.292184 0 4.260024 1.658779 8.271384 4.674463 11.287067L484.723773 656.562467C490.945475 662.780075 501.072113 662.780075 507.297908 656.562467L507.297908 656.562467zM507.297908 656.562467" p-id="10826" fill="#d4237a"></path><path d="M897.616568 445.463608c3.791349 21.614274 5.816472 43.837414 5.816472 66.557882 0 216.174458-175.231977 391.416667-391.416667 391.416667-216.179574 0-391.44532-175.24221-391.44532-391.416667 0-216.179574 175.270862-391.450437 391.44532-391.450437 51.328016 0 100.241029 10.175757 145.157008 28.138874l15.69854-54.139038c-49.941436-19.256576-104.115266-29.938869-160.855548-29.938869-247.059885 0-447.379237 200.325491-447.379237 447.384353 0 247.071142 200.315258 447.350584 447.379237 447.350584 247.071142 0 447.345468-200.280466 447.345468-447.350584 0-28.948309-2.780323-57.232492-8.061606-84.633562L897.616568 445.463608 897.616568 445.463608zM897.616568 445.463608" p-id="10827" fill="#d4237a"></path></svg>